<?xml version="1.0" standalone="no"?>
<!DOCTYPE svg PUBLIC "-//W3C//DTD SVG 20010904//EN"
 "http://www.w3.org/TR/2001/REC-SVG-20010904/DTD/svg10.dtd">
<svg version="1.0" xmlns="http://www.w3.org/2000/svg"
 width="700.000000pt" height="700.000000pt" viewBox="0 0 700.000000 700.000000"
 preserveAspectRatio="xMidYMid meet">
<metadata>
Created by potrace 1.14, written by Peter Selinger 2001-2017
</metadata>
<g transform="translate(0.000000,700.000000) scale(0.100000,-0.100000)"
fill="#000000" stroke="none">
<path d="M3140 6545 c-572 -72 -1115 -300 -1562 -657 -132 -105 -361 -334
-466 -466 -305 -382 -522 -847 -617 -1321 -73 -368 -75 -818 -5 -1181 80 -407
230 -773 465 -1125 495 -744 1298 -1235 2195 -1340 166 -20 536 -20 704 0 566
66 1084 280 1546 638 119 92 376 344 467 457 361 448 578 939 669 1510 22 141
31 587 14 747 -124 1213 -957 2242 -2115 2613 -138 44 -326 88 -480 112 -172
27 -641 34 -815 13z m510 -1725 l0 -410 495 0 495 0 0 -330 0 -330 -495 0
-496 0 3 -598 3 -599 30 -48 c21 -33 47 -57 85 -79 l55 -31 383 -3 382 -3 0
-325 0 -325 -482 3 c-464 4 -486 5 -563 26 -163 46 -308 132 -406 241 -91 101
-146 206 -192 369 -21 75 -21 96 -25 725 l-3 647 -355 0 -354 0 2 328 3 327
353 3 352 2 0 410 0 410 365 0 365 0 0 -410z"/>
</g>
</svg>
