<svg width="150" height="150" viewBox="0 0 150 150" fill="none" xmlns="http://www.w3.org/2000/svg">
<g clip-path="url(#clip0)">
<path d="M91.9688 54.1781L76.9547 68.1469L63.0234 40.0453L70.2328 23.8828C72.1078 20.6016 75.0328 20.6391 76.8609 23.8828L91.9688 54.1781Z" fill="#FFA000"/>
<path d="M63.0234 40.0453L76.9546 68.1469L20.8453 120.342L63.0234 40.0453Z" fill="#F57F17"/>
<path d="M108.389 32.8266C111.07 30.2484 113.845 31.1297 114.553 34.7812L129.159 119.648L80.7468 148.711C79.0593 149.648 74.5593 150.052 74.5593 150.052C74.5593 150.052 70.4625 149.564 68.9015 148.645L20.8453 120.342L108.389 32.8266Z" fill="#FFCA28"/>
<path d="M63.0234 40.0453L20.85 120.342L39.6328 2.99061C40.3265 -0.665642 42.4078 -1.0172 44.264 2.2078L63.0234 40.0453Z" fill="#FFA000"/>
</g>
<defs>
<clipPath id="clip0">
<rect width="150" height="150" fill="white"/>
</clipPath>
</defs>
</svg>
