<svg width="24" height="24" viewBox="0 0 24 24" fill="none" xmlns="http://www.w3.org/2000/svg">
<g clip-path="url(#clip0)">
<path d="M16 22.0001V18.1301C16.0375 17.6532 15.9731 17.1739 15.811 16.7239C15.6489 16.2738 15.3929 15.8635 15.06 15.5201C18.2 15.1701 21.5 13.9801 21.5 8.52006C21.4997 7.12389 20.9627 5.78126 20 4.77006C20.4559 3.54857 20.4236 2.19841 19.91 1.00006C19.91 1.00006 18.73 0.65006 16 2.48006C13.708 1.85888 11.292 1.85888 9 2.48006C6.27 0.65006 5.09 1.00006 5.09 1.00006C4.57638 2.19841 4.54414 3.54857 5 4.77006C4.03013 5.78876 3.49252 7.14352 3.5 8.55006C3.5 13.9701 6.8 15.1601 9.94 15.5501C9.611 15.89 9.35726 16.2955 9.19531 16.74C9.03335 17.1845 8.96681 17.6581 9 18.1301V22.0001M9 19.0001C4 20.5001 4 16.5001 2 16.0001L9 19.0001Z" stroke="#19A085" stroke-width="2" stroke-linecap="round" stroke-linejoin="round"/>
</g>
<defs>
<clipPath id="clip0">
<rect width="24" height="24" fill="white"/>
</clipPath>
</defs>
</svg>
