<svg width="256" height="256" viewBox="0 0 256 256" fill="none" xmlns="http://www.w3.org/2000/svg">
<path fill-rule="evenodd" clip-rule="evenodd" d="M17.5913 85.5328C-5.86378 108.988 -5.86378 147.012 17.5913 170.465L85.5338 238.409C108.989 261.862 147.013 261.862 170.466 238.409L238.41 170.465C261.863 147.01 261.863 108.986 238.41 85.5328L170.466 17.5904C147.011 -5.8625 108.987 -5.8625 85.5338 17.5904L17.5913 85.5328ZM157.725 157.726C174.143 141.307 174.143 114.69 157.725 98.2738C141.308 81.8553 114.691 81.8553 98.2748 98.2738C81.8562 114.692 81.8562 141.307 98.2748 157.726C114.693 174.142 141.308 174.142 157.727 157.726H157.725Z" fill="#19A085"/>
</svg>
