<svg width="124" height="111" viewBox="0 0 124 111" fill="none" xmlns="http://www.w3.org/2000/svg">
<path d="M123.89 55.7102C123.89 47.5211 113.635 39.7603 97.9116 34.9476C101.54 18.922 99.9274 6.17216 92.8217 2.09018C91.1839 1.13268 89.2689 0.679128 87.1775 0.679128V6.29814C88.3366 6.29814 89.2689 6.52492 90.05 6.95328C93.4768 8.91867 94.9635 16.4023 93.8044 26.0277C93.5272 28.3962 93.0737 30.8908 92.5193 33.4357C87.5806 32.2263 82.1884 31.2939 76.519 30.6892C73.1173 26.0277 69.5897 21.7945 66.0369 18.0905C74.2512 10.4557 81.9616 6.27295 87.2027 6.27295V0.653931C80.2734 0.653931 71.2023 5.59262 62.0305 14.1597C52.8587 5.64301 43.7876 0.754721 36.8583 0.754721V6.37374C42.0742 6.37374 49.8098 10.5313 58.0241 18.1157C54.4965 21.8197 50.9689 26.0277 47.6176 30.6892C41.923 31.2939 36.5308 32.2262 31.5921 33.4609C31.0125 30.9412 30.5842 28.497 30.2818 26.1537C29.0975 16.5283 30.559 9.04466 33.9606 7.05407C34.7165 6.60051 35.6992 6.39893 36.8583 6.39893V0.779918C34.7417 0.779918 32.8267 1.23347 31.1637 2.19097C24.0832 6.27295 22.4958 18.9976 26.1494 34.9728C10.4767 39.8107 0.271729 47.5463 0.271729 55.7102C0.271729 63.8994 10.5271 71.6601 26.2502 76.4728C22.6218 92.4984 24.2344 105.248 31.3401 109.33C32.9779 110.288 34.8929 110.741 37.0095 110.741C43.9388 110.741 53.0098 105.803 62.1817 97.2355C71.3535 105.752 80.4246 110.64 87.3539 110.64C89.4704 110.64 91.3854 110.187 93.0485 109.229C100.129 105.147 101.716 92.4228 98.0627 76.4476C113.685 71.6349 123.89 63.8742 123.89 55.7102ZM91.0831 38.9036C90.1508 42.154 88.9917 45.5053 87.6814 48.8565C86.6483 46.8407 85.5648 44.8249 84.3806 42.8091C83.2215 40.7934 81.9868 38.828 80.7522 36.913C84.3302 37.4421 87.7822 38.0972 91.0831 38.9036ZM79.5427 65.7388C77.5773 69.1404 75.5615 72.3657 73.4701 75.3642C69.7157 75.6917 65.9109 75.8681 62.0809 75.8681C58.2761 75.8681 54.4713 75.6917 50.7421 75.3894C48.6507 72.3909 46.6097 69.1908 44.6443 65.8144C42.7293 62.5135 40.9907 59.1622 39.4033 55.7858C40.9655 52.4093 42.7293 49.0329 44.6191 45.732C46.5845 42.3304 48.6003 39.1051 50.6917 36.1066C54.4461 35.7791 58.2509 35.6027 62.0809 35.6027C65.8857 35.6027 69.6905 35.7791 73.4197 36.0814C75.5111 39.0799 77.5521 42.28 79.5175 45.6565C81.4325 48.9573 83.1711 52.3086 84.7585 55.685C83.1711 59.0615 81.4325 62.4379 79.5427 65.7388ZM87.6814 62.4631C89.0421 65.8396 90.2012 69.216 91.1587 72.4917C87.8578 73.298 84.3806 73.9783 80.7774 74.5075C82.012 72.5673 83.2467 70.5767 84.4058 68.5357C85.5649 66.5199 86.6483 64.4789 87.6814 62.4631ZM62.1313 89.3487C59.7879 86.9298 57.4446 84.2336 55.1264 81.2855C57.3942 81.3863 59.7123 81.4619 62.0557 81.4619C64.4243 81.4619 66.7676 81.4115 69.0606 81.2855C66.7928 84.2336 64.4495 86.9298 62.1313 89.3487ZM43.3844 74.5075C39.8064 73.9783 36.3544 73.3232 33.0535 72.5169C33.9858 69.2664 35.1449 65.9152 36.4552 62.5639C37.4883 64.5797 38.5717 66.5955 39.756 68.6113C40.9403 70.6271 42.1498 72.5925 43.3844 74.5075ZM62.0053 22.0717C64.3487 24.4907 66.692 27.1868 69.0102 30.1349C66.7424 30.0341 64.4243 29.9585 62.0809 29.9585C59.7123 29.9585 57.369 30.0089 55.076 30.1349C57.3438 27.1868 59.6871 24.4907 62.0053 22.0717ZM43.3592 36.913C42.1246 38.8532 40.8899 40.8438 39.7308 42.8847C38.5717 44.9005 37.4883 46.9163 36.4552 48.9321C35.0945 45.5557 33.9354 42.1792 32.9779 38.9036C36.2788 38.1224 39.756 37.4421 43.3592 36.913ZM20.5556 68.4601C11.6357 64.6553 5.86555 59.6662 5.86555 55.7102C5.86555 51.7542 11.6357 46.7399 20.5556 42.9603C22.7226 42.028 25.0911 41.1965 27.5353 40.4154C28.9715 45.3541 30.8613 50.4944 33.2047 55.7606C30.8865 61.0017 29.0219 66.1167 27.6109 71.0302C25.1163 70.2491 22.7478 69.3924 20.5556 68.4601ZM34.1118 104.467C30.685 102.502 29.1983 95.0181 30.3574 85.3927C30.6346 83.0242 31.0881 80.5296 31.6425 77.9847C36.5812 79.1942 41.9734 80.1265 47.6428 80.7312C51.0444 85.3927 54.5721 89.6259 58.1249 93.3299C49.9106 100.965 42.2002 105.147 36.9591 105.147C35.8252 105.122 34.8677 104.895 34.1118 104.467ZM93.88 85.2667C95.0643 94.8921 93.6028 102.376 90.2012 104.366C89.4452 104.82 88.4625 105.021 87.3035 105.021C82.0876 105.021 74.352 100.864 66.1377 93.2795C69.6653 89.5755 73.1929 85.3675 76.5442 80.706C82.2388 80.1013 87.631 79.169 92.5697 77.9343C93.1493 80.4792 93.6028 82.9234 93.88 85.2667ZM103.581 68.4601C101.414 69.3924 99.0454 70.2239 96.6013 71.005C95.1651 66.0663 93.2752 60.9261 90.9319 55.6598C93.25 50.4188 95.1147 45.3037 96.5257 40.3902C99.0203 41.1713 101.389 42.028 103.606 42.9603C112.526 46.7651 118.296 51.7542 118.296 55.7102C118.271 59.6662 112.501 64.6805 103.581 68.4601Z" fill="#61DAFB"/>
<path d="M62.0557 67.2255C68.4154 67.2255 73.5709 62.0699 73.5709 55.7103C73.5709 49.3506 68.4154 44.1951 62.0557 44.1951C55.6961 44.1951 50.5405 49.3506 50.5405 55.7103C50.5405 62.0699 55.6961 67.2255 62.0557 67.2255Z" fill="#61DAFB"/>
</svg>
